<svg xmlns="http://www.w3.org/2000/svg" xmlns:xlink="http://www.w3.org/1999/xlink" width="752.738" height="162.272" viewBox="0 0 752.738 162.272"><defs><filter id="a" x="0" y="0" width="752.738" height="162.272" filterUnits="userSpaceOnUse"><feOffset dy="3" input="SourceAlpha"/><feGaussianBlur stdDeviation="10" result="b"/><feFlood flood-opacity="0.502"/><feComposite operator="in" in2="b"/><feComposite in="SourceGraphic"/></filter></defs><g transform="matrix(1, 0, 0, 1, 0, 0)" filter="url(#a)"><path d="M21682.309-13778.939a143.584,143.584,0,0,1-35.486-20.863,91.112,91.112,0,0,1-14.213-14.509c1.127.463,2.26.913,3.432,1.275,8.023,9.44,17.916,17.18,28.469,23.659a178.637,178.637,0,0,0,32.518,15.47,9.33,9.33,0,0,1,2.7,1.179A153.508,153.508,0,0,1,21682.309-13778.939Zm-146.072-4.751q-25.151-.013-50.3,0c-9.309-.058-18.617-.049-27.92-.043s-18.615.013-27.924-.039q-99.018-.083-198.027-.565c-8.283-.1-16.561-.123-24.84-.288a17.5,17.5,0,0,1-3.979-.293c30.48-.443,60.969-.48,91.455-.62q140.06-.447,280.125-.346,45.272-.025,90.535.066c1.207.716,2.449,1.36,3.7,2.011-10.955.1-21.912.087-32.869.074q-9.111-.006-18.221,0-26.156.05-52.318.042Zm137.209-2.071c19.3-.1,38.607.032,57.91.041q52.444.1,104.885.327c17.211.1,34.424.155,51.637.413,1.648.038,3.3.062,4.951.148-3.7.362-7.436.2-11.145.324-35.4.344-70.809.44-106.217.534q-49.178.16-98.357.2C21675.914-13784.5,21674.57-13784.942,21673.445-13785.762Zm166.578-60.742q-.015,20.322,0,40.653c-.039,2.716.033,5.564,1.2,8.074,1.344,1.955,3.75,2.77,5.9,3.535-2.141.113-4.287.1-6.432.081-1.254-.011-2.5-.021-3.756,0-1.35-.021-2.7-.011-4.043,0-2.262.015-4.521.032-6.775-.075a26.914,26.914,0,0,0,4.744-2.115,3.346,3.346,0,0,0,1.664-1.845,22.58,22.58,0,0,0,.8-7q-.006-21.42,0-42.843c-.062-3.046.373-6.239-.979-9.093-1.187-3.369-4.635-5.023-7.668-6.426,2.346.043,4.7.03,7.049.017,3.193-.017,6.391-.036,9.568.088q20.273,23.268,40.51,46.568-.006-19.809,0-39.621c-.07-3.562-3.541-5.662-6.416-7.047,6.453.015,12.9.034,19.357,0-1.875.921-4.09,1.576-5.379,3.3-1.168,2.493-.838,5.338-.9,8q0,30.125.008,60.245Q21864.241-13819.258,21840.023-13846.5Zm-572.557,47.992a31.986,31.986,0,0,1-13.969-19.73,41.8,41.8,0,0,1,1.385-24,33.532,33.532,0,0,1,13.256-16.414,38.214,38.214,0,0,1,16.043-5.713,41.856,41.856,0,0,1,24.033,3.636,32.13,32.13,0,0,1,16.941,20.807,43.141,43.141,0,0,1,.256,19.656,34.387,34.387,0,0,1-11.545,19.074,38.467,38.467,0,0,1-22.672,8.366q-1.415.1-2.828.094A39.508,39.508,0,0,1,21267.467-13798.512Zm17.35-60.674a18.374,18.374,0,0,0-10.979,6.571c-4.16,5-6.09,11.459-6.742,17.823a45.664,45.664,0,0,0,1.689,18.37c1.9,5.75,5.238,11.255,10.322,14.74a20.042,20.042,0,0,0,16.16,3.073,18.98,18.98,0,0,0,10.535-7.373c4.135-5.679,5.8-12.767,6.086-19.683a42.57,42.57,0,0,0-2.516-17.175c-1.979-5.062-5.119-9.849-9.664-12.984a19.986,19.986,0,0,0-11.586-3.634A20.376,20.376,0,0,0,21284.816-13859.186Zm-82.562,65.261c2.133-1.06,4.33-2.432,5.422-4.617a21.819,21.819,0,0,0,.689-6.334q0-22.871,0-45.75c-.025-2.811.193-5.824-1.176-8.392a16.3,16.3,0,0,0-5.191-4.574c1.842-.046,3.684-.039,5.525-.036,1.1,0,2.193.007,3.289,0,2.9-.046,5.34,1.861,7.369,3.723,2.053,1.966,4.158,4.333,4.221,7.335.051,17.194-.01,34.39.029,51.587a1.4,1.4,0,0,0,1.473,1.46q1.764,0,3.535,0c2.613.01,5.23.017,7.842-.022,2.859-.251,5.959-.79,8.115-2.832a22.947,22.947,0,0,0,5.615-8.437c-.166,5.345-.535,10.683-.77,16.024-.092.308.156,1.008-.437.866-10.039.026-20.082.063-30.127.045-1.713-.007-3.432.01-5.145.026-1.5.017-3,.03-4.494.03C21206.109-13793.82,21204.182-13793.846,21202.254-13793.925Zm189.445-.014a12.337,12.337,0,0,0,6.793-4.948,12.4,12.4,0,0,0,1.158-5.669q.006-24.669,0-49.334c-.037-2.065-.3-4.359-1.838-5.9a16.476,16.476,0,0,0-6.32-3.77c5.02-.091,10.043-.078,15.068-.065,3.039.01,6.078.017,9.119,0,7.451-.053,15.01.229,22.223,2.254a36.654,36.654,0,0,1,15.871,8.944,31.477,31.477,0,0,1,9.227,18.819,38.488,38.488,0,0,1-2.074,17.716,30.867,30.867,0,0,1-10.514,13.7,41.857,41.857,0,0,1-18.678,7.336,103.681,103.681,0,0,1-17.535.951c-2-.009-4-.011-5.994.024-2.293-.039-4.582-.017-6.869.01-1.422.016-2.84.031-4.254.031C21395.285-13793.836,21393.49-13793.861,21391.7-13793.938Zm23.865-64-1.82,0q-.006,27.826,0,55.657a2.357,2.357,0,0,0,1.553,2.371,7.66,7.66,0,0,0,3.352.313c.527-.025,1.053-.055,1.576-.032,4.65-.1,9.428-.519,13.744-2.385a20.57,20.57,0,0,0,9.281-7.612c4.086-6,5.232-13.467,4.961-20.577-.225-6.91-2.166-14.039-6.787-19.359a26.061,26.061,0,0,0-15.395-7.836,54.7,54.7,0,0,0-8.9-.546C21416.607-13857.945,21416.084-13857.944,21415.564-13857.941Zm-65.605,36.712c-.045,5.448,0,10.9-.02,16.354a19.615,19.615,0,0,0,.783,6.81c1.215,2.054,3.555,3.022,5.549,4.156q-5.956-.022-11.91-.006c-5.541.006-11.078.015-16.611-.035a22.876,22.876,0,0,0,5.029-2.067,4.835,4.835,0,0,0,2.482-2.71,30.425,30.425,0,0,0,.586-7.752q.006-23.045,0-46.092a16.142,16.142,0,0,0-1.084-6.32c-1.275-2.362-3.781-3.749-6.209-4.7,4.279-.049,8.563-.043,12.846-.036q3.823.01,7.652,0c.9,0,1.811,0,2.717,0a55.476,55.476,0,0,1,12.443.885,23.275,23.275,0,0,1,11.529,6,17.435,17.435,0,0,1,4.613,12.915,25.191,25.191,0,0,1-2.014,9.025,22.6,22.6,0,0,1-14.951,11.158q6.442,8.347,12.865,16.7c3.719,4.763,7.559,9.638,12.662,13.015-3.133.013-6.264.009-9.393.007-2.955,0-5.912,0-8.863.008C21362.424-13801.948,21356.709-13812.021,21349.959-13821.229Zm-.008-10.916a2.776,2.776,0,0,0,2.664,2.886,14.233,14.233,0,0,0,6.328-.873,12.356,12.356,0,0,0,6.5-7.782,19.582,19.582,0,0,0-1.041-14.322,11.232,11.232,0,0,0-6.514-5.521,19.252,19.252,0,0,0-5.652-.471c-.764.013-1.535.021-2.293,0C21349.955-13849.53,21349.928-13840.842,21349.951-13832.146Zm374.742,38.01c2.092-.868,4.539-1.907,5.344-4.221a32.7,32.7,0,0,0,.877-9.091v-42.895a25.787,25.787,0,0,0-.346-5.833,9.722,9.722,0,0,0-1.176-3.506,17.282,17.282,0,0,0-4.742-3.875c2.227.012,4.459.022,6.693.012a8.057,8.057,0,0,1,4.271,1.489,23.459,23.459,0,0,1,7.186,7.23,7.993,7.993,0,0,1,1.1,3.856q.012,24.853.006,49.708a1.482,1.482,0,0,0,1.482,1.568c2.246.018,4.5.014,6.74.011,1.578,0,3.154,0,4.729,0a12.357,12.357,0,0,0,7.51-2.986,33.3,33.3,0,0,0,7.1-8.093c-.416,5.531-.812,11.065-1.229,16.6-4.824-.013-9.645,0-14.463.019-5.086.021-10.174.037-15.264.022-2.26-.028-4.516-.008-6.773.015-1.488.014-2.979.029-4.463.029C21727.752-13794.073,21726.223-13794.089,21724.693-13794.136Zm-42.992-4.852a28.187,28.187,0,0,0,.648-7.187V-13850c.07-3.11.051-6.33-1.211-9.228-1.205-1.9-3.168-3.146-5.02-4.345,1.25.035,2.508.031,3.764.025,1.23,0,2.463-.006,3.691.029a13.022,13.022,0,0,1,5.508,2.91,23.694,23.694,0,0,1,5.105,5.654,7.819,7.819,0,0,1,1.154,4.3q-.009,24.508,0,49.017c-.086.843.371,1.889,1.34,1.919,2.283.052,4.568.041,6.852.035,1.539-.006,3.076-.011,4.617,0a11.756,11.756,0,0,0,7.014-2.494,30.536,30.536,0,0,0,7.7-8.549c-.264,5.527-.781,11.045-1.162,16.569q-22.937-.007-45.875.069C21678.244-13794.943,21680.949-13796.334,21681.7-13798.987Zm92.754,4.791a12.858,12.858,0,0,0,5.516-4.584,17.425,17.425,0,0,0,1.145-7.394V-13850c-.006-2.76.182-5.642-.891-8.254-1.219-2.821-4.166-4.448-7.01-5.266q11.815-.057,23.631-.029,7.767,0,15.545,0a12.253,12.253,0,0,0,6.244-2.105c.021,5.123.051,10.245-.016,15.366a12.684,12.684,0,0,0-5.361-5.092,14.544,14.544,0,0,0-6.406-1.393q-6.375,0-12.748,0c.008,8.173-.02,16.346.016,24.518,2.557-.019,5.117-.013,7.678-.009,2.336,0,4.676,0,7.018-.006a8.246,8.246,0,0,0,7.371-4.458c-.045,4.7-.021,9.4-.01,14.1-1.193-2.723-4.215-4.013-7.061-4.076-4.459-.089-8.926-.039-13.387-.029a1.543,1.543,0,0,0-1.613,1.7c-.012,7.92-.027,15.84,0,23.762a1.547,1.547,0,0,0,1.6,1.583c2.02.007,4.041,0,6.063,0,1.8,0,3.594,0,5.393,0a14.126,14.126,0,0,0,8.512-2.957,24.129,24.129,0,0,0,6.443-7.912c-.428,5.46-.814,10.923-1.221,16.385-10.133-.026-20.27.037-30.41.041-2.051-.022-4.105-.011-6.16,0-1.207.008-2.42.014-3.631.014C21778.621-13794.105,21776.539-13794.125,21774.455-13794.2Zm-215.2.044a14.855,14.855,0,0,0,5.344-4.078,10.571,10.571,0,0,0,1.422-5.644v-49.375a20.28,20.28,0,0,0-.807-5.976c-1.127-2.239-3.617-3.288-5.775-4.316q9.788-.009,19.576,0,13.046,0,26.1-.009c.51,1.743,1.117,3.456,1.688,5.174a7.312,7.312,0,0,1,.594,2.52c-.006,2.423,0,4.839-.006,7.26-1.361-1.774-2.416-3.786-4.029-5.356a7.876,7.876,0,0,0-5.33-1.551h-19.023c0,7.762-.012,15.529.006,23.294,2.014-.019,4.025-.013,6.041-.007,2.9.009,5.811.017,8.717-.043a9.868,9.868,0,0,0,7.314-3.753c-.07,4.34.037,8.68-.057,13.019-1.154-1.674-2.684-3.415-4.881-3.51a87.053,87.053,0,0,0-8.875-.2c-1.754.02-3.508.043-5.256,0a5.47,5.47,0,0,1-.779,0,2.05,2.05,0,0,0-1.76.439,1.99,1.99,0,0,0-.475,1.582q.012,9.1,0,18.2a20.721,20.721,0,0,0,1.008,7.821,8.4,8.4,0,0,0,5.965,4.409c-2.26.133-4.52.112-6.783.1-1.344-.011-2.7-.021-4.043,0-2.24-.017-4.479,0-6.719.019-1.645.014-3.285.025-4.93.025C21562.088-13794.114,21560.67-13794.123,21559.254-13794.152Zm42.389-.094c2.291-.91,4.746-2.1,6.008-4.329a87.64,87.64,0,0,0,4.777-9.26c4.146-8.571,8.262-17.165,12.412-25.739-7.262-11.162-13.033-23.47-15.676-36.557-.3-1.407-.508-2.833-.687-4.257l-.361.555a2.374,2.374,0,0,0,.256-1.168c2.92,13.489,9.016,26.11,16.406,37.722a172.853,172.853,0,0,0,17.266,22.78,2.063,2.063,0,0,1-2.295.333,143.162,143.162,0,0,1-9.26-11.164c-2.994,6.774-6.041,13.521-9.031,20.3a14.587,14.587,0,0,0-1.236,5.689c.627,2.732,3.475,4.186,5.893,5.12-3.225.091-6.453.074-9.682.062-1.986-.011-3.977-.018-5.961,0-1.078-.018-2.152-.011-3.229,0-.672.006-1.344.013-2.012.013C21604.029-13794.147,21602.834-13794.168,21601.643-13794.246Zm-127.6-3.593a3.779,3.779,0,0,0-2.977-.347,16.005,16.005,0,0,0-2.654,1.746c.176-6.208.234-12.422.363-18.638,2.621,5.366,6.092,10.641,11.316,13.817a15.735,15.735,0,0,0,12.01,1.521,9.408,9.408,0,0,0,5.873-4.895,12.694,12.694,0,0,0,1-9.264c-1.1-3.5-4.434-5.434-7.145-7.6-5.379-4.227-11.869-6.809-17.178-11.127a15.327,15.327,0,0,1-5.236-9.533,18.092,18.092,0,0,1,3.107-13.986,19.183,19.183,0,0,1,12.533-7.316,25.722,25.722,0,0,1,10.717.241c3.313.863,6.551,1.978,9.809,3.018a4.192,4.192,0,0,0,4.391-1.088c-.193,5.285-.094,10.581-.332,15.86a26.175,26.175,0,0,0-5.873-8.28,26.456,26.456,0,0,0-6.18-3.921c-2.48-1.078-5.324-1.944-8.008-1.1-2.744.7-5.557,2.336-6.436,5.171-.875,2.8-1.535,6.034-.2,8.79,1.561,2.84,4.355,4.685,7.053,6.357,3.1,2.241,6.711,3.622,9.885,5.75,3.814,2.508,7.957,4.848,10.572,8.706a15.366,15.366,0,0,1,2.783,10.3c-.33,4.577-1.687,9.36-5.045,12.681-4.322,4.409-10.568,6.513-16.668,6.69-.277.006-.557.009-.836.009A40.412,40.412,0,0,1,21474.041-13797.839Zm193.375-6.8c-8.822-7.332-17.365-15.34-23.32-25.228,1.254,0,2.512.007,3.775-.007-2.4-5.391-5.488-10.443-8.389-15.576-1.709,3.748-3.355,7.523-5.045,11.282,7.717,10.955,15.881,21.7,25.525,31.08,1.146,1.182,2.5,2.151,3.66,3.32l-.367-.094c-1.91-1.783-3.969-3.407-5.893-5.182a153.1,153.1,0,0,1-34.422-45.62c-.68-1.49-1.455-2.946-1.986-4.493,2.533,4.38,5.285,8.627,8.023,12.885,3.936-7.923,7.689-15.941,11.572-23.894,9.893,19.591,19.646,39.244,29.537,58.843a37.192,37.192,0,0,0,5.676,8.983A98.643,98.643,0,0,1,21667.416-13804.638Zm-141.6-4.958a42.873,42.873,0,0,1-5.08-.3c4.293-.394,8.619-.261,12.924-.374,2.025.006,4.059.006,6.086,0,6.271-.007,12.551-.016,18.814.337a89.29,89.29,0,0,1-10.045.406q-4.5.057-9,.059Q21532.66-13809.463,21525.814-13809.6Zm-.582-5.35c.057-3.142.006-6.291.023-9.438-.264,0-.537-.006-.812-.013-1.277-.031-2.637-.067-3.525.982.008-1.212.016-2.423-.01-3.634a2.317,2.317,0,0,0,1.611.691c2.625.035,5.26.038,7.891,0a2.884,2.884,0,0,0,1.838-.8,18.448,18.448,0,0,0-.111,3.7c-.844-1-2.141-.966-3.367-.933-.352.008-.7.019-1.023.006,0,3.162-.012,6.323,0,9.484-.057.87.7,1.418,1.383,1.795a51.417,51.417,0,0,0-5.264.03A2.07,2.07,0,0,0,21525.232-13814.945Zm23.693,0c.035-3.126.021-6.26.01-9.389a2.3,2.3,0,0,0-1.187-2.02c2.387.013,4.787.055,7.186-.013a1.582,1.582,0,0,0,1.266-1.034c-.047,1.335-.027,2.672-.018,4-.834-1.191-2.266-1.152-3.615-1.114-.416.014-.828.023-1.207,0-.01,1.111-.006,2.22-.006,3.334.348-.017.705-.013,1.057-.007a5.687,5.687,0,0,0,3.2-.567c-.016,1.056-.02,2.1.006,3.161a5.826,5.826,0,0,0-3.133-.486c-.377.013-.754.022-1.119.008a17.71,17.71,0,0,0,.158,3.819c.348-.017.729-.006,1.119,0,1.633.042,3.461.088,4.137-1.65a30.047,30.047,0,0,0-.35,3.744c-1.141.017-2.285.009-3.428,0-1.781-.013-3.561-.021-5.336.061A2.225,2.225,0,0,0,21548.926-13814.945Zm-14.1,1.8c-.518,0-1.037.006-1.555.006a2.831,2.831,0,0,0,1.123-2.125c0-3.023.029-6.046-.012-9.069a2.589,2.589,0,0,0-1.072-2c.682-.01,1.369-.006,2.047-.006.965,0,1.932,0,2.9-.02-2.047.9-1.127,3.424-1.312,5.14q2.73-.016,5.463,0c-.174-1.722.646-4.174-1.309-5.14,1,.025,2,.021,3.006.02.656,0,1.313,0,1.973,0a2.465,2.465,0,0,0-1.123,2q-.035,4.677,0,9.353a2.225,2.225,0,0,0,1.129,1.845c-1.65-.008-3.3-.052-4.943.031a2.385,2.385,0,0,0,1.242-1.8c.07-1.388,0-2.777.027-4.167-.783,0-1.566,0-2.344,0-1.045,0-2.084,0-3.127,0,.014,1.388-.051,2.781.023,4.169a2.458,2.458,0,0,0,1.287,1.813C21537.107-13813.168,21535.969-13813.158,21534.828-13813.146Zm-3.6-18.229a7.334,7.334,0,0,1-2.131-9.5,5.944,5.944,0,0,1,4.4-3.068,6.9,6.9,0,0,1,5.295,1.167,7.32,7.32,0,0,1,.59,10.486,6.526,6.526,0,0,1-4.7,1.938A6.149,6.149,0,0,1,21531.232-13831.374Zm2.461-10.46c-3.123,1.19-3.5,5.606-1.732,8.066a3.388,3.388,0,0,0,4.994.64c1.965-1.722,2.059-4.813.975-7.042a3.378,3.378,0,0,0-3.066-1.873A3.307,3.307,0,0,0,21533.693-13841.834Zm9.111,11.268a2.444,2.444,0,0,0,1.314-2.2c.014-2.937.006-5.869,0-8.806a2.316,2.316,0,0,0-1.971-2.181c1.363-.106,2.719-.073,4.084-.048,1.262.029,2.523.054,3.787-.022.609-.049.961-.61,1.379-.983-.006,1.287-.025,2.569.023,3.854-.955-1.041-2.32-1-3.631-.972-.41.01-.812.019-1.2,0-.029,1.069-.029,2.138-.023,3.211a10.483,10.483,0,0,1,1.238,0c1.135.05,2.3.1,3.113-.769-.039,1.2-.029,2.409-.021,3.618a3.648,3.648,0,0,0-2.943-.659,8.432,8.432,0,0,1-1.387,0c.016,1.355-.027,2.71.016,4.063-.041.884.766,1.42,1.4,1.893C21546.262-13830.616,21544.527-13830.61,21542.8-13830.566Zm-19.277-16.468a12.564,12.564,0,0,1-2.684-.232c5.459-.419,10.943-.312,16.414-.372,6.09-.008,12.186,0,18.273.183a17.344,17.344,0,0,1,3.033.238c-4.039.346-8.1.268-12.156.353-2.643,0-5.285.012-7.93.012C21533.494-13846.854,21528.51-13846.885,21523.527-13847.034Zm21.438-23.24q-45.51.009-91.02-.043-110.455-.086-220.914-.488c-8.973-.091-17.947-.1-26.922-.248a8.343,8.343,0,0,1-1.562-.245c5.789.1,11.59-.1,17.383-.111,75.154-.4,150.311-.455,225.469-.57q79.421-.044,158.83-.037c.436.008.873.03,1.318.062a14.98,14.98,0,0,1,.307,1.688Q21576.409-13870.293,21544.965-13870.274Zm65.4-1.706q107.405.013,214.8.365c17.09.07,34.184.119,51.277.244,2.311-.006,4.627.022,6.936.056,3.145.045,6.283.087,9.424.035a61.478,61.478,0,0,1-7.709.29c-1.469,0-2.932-.01-4.395.046-36.82.252-73.641.32-110.463.423q-79.693.18-159.4.25C21610.672-13870.842,21610.512-13871.41,21610.367-13871.98Z" transform="translate(-21172 13902)" fill="#fff"/></g></svg>